<?xml version="1.0" encoding="utf-8"?>
<!-- Generator: Adobe Illustrator 24.2.1, SVG Export Plug-In . SVG Version: 6.00 Build 0)  -->
<svg version="1.1" id="レイヤー_2_1_" xmlns="http://www.w3.org/2000/svg" xmlns:xlink="http://www.w3.org/1999/xlink" x="0px"
	 y="0px" viewBox="0 0 25.2 25.2" style="enable-background:new 0 0 25.2 25.2;" xml:space="preserve">
<style type="text/css">
	.st0{fill:none;stroke:#FFFFFF;stroke-width:0.25;stroke-miterlimit:10;}
	.st1{fill:#FFFFFF;}
</style>
<g>
	<circle cx="12.6" cy="12.6" r="12.6"/>
	<line class="st0" x1="15.2" y1="-1" x2="7.8" y2="25.2"/>
	<line class="st0" x1="9.3" y1="-0.8" x2="25.7" y2="11.7"/>
	<line class="st0" x1="-0.1" y1="16.5" x2="25.6" y2="10"/>
	<circle class="st1" cx="11.1" cy="13.7" r="0.8"/>
	<g>
		<path class="st1" d="M11.7,17.6v-2.8h0.6c0.1,0,0.2,0,0.3,0s0.2,0.1,0.2,0.2c0.1,0.1,0.1,0.2,0.1,0.3c0,0.1,0,0.2,0,0.4
			c0,0.1,0,0.2,0,0.3c0,0.1,0,0.2-0.1,0.2c-0.1,0.1-0.1,0.2-0.2,0.2c-0.1,0.1-0.2,0.1-0.4,0.1H12v1.1C12,17.6,11.7,17.6,11.7,17.6z
			 M12.2,15.2v1h0.2c0.1,0,0.1,0,0.2,0l0.1-0.1V16c0-0.1,0-0.1,0-0.2s0-0.1,0-0.2s0-0.1,0-0.2l-0.1-0.1c0,0-0.1,0-0.2,0L12.2,15.2
			L12.2,15.2z"/>
	</g>
</g>
</svg>
