<?xml version="1.0" encoding="utf-8"?>
<!-- Generator: Adobe Illustrator 24.2.1, SVG Export Plug-In . SVG Version: 6.00 Build 0)  -->
<svg version="1.1" id="レイヤー_2_1_" xmlns="http://www.w3.org/2000/svg" xmlns:xlink="http://www.w3.org/1999/xlink" x="0px"
	 y="0px" viewBox="0 0 90 25.2" style="enable-background:new 0 0 90 25.2;" xml:space="preserve">
<style type="text/css">
	.st0{fill:none;stroke:#FFFFFF;stroke-width:0.25;stroke-miterlimit:10;}
	.st1{fill:#FFFFFF;}
</style>
<g>
	<circle cx="12.6" cy="12.6" r="12.6"/>
	<line class="st0" x1="15.2" y1="-1" x2="7.8" y2="25.2"/>
	<line class="st0" x1="9.3" y1="-0.8" x2="25.7" y2="11.7"/>
	<line class="st0" x1="-0.1" y1="16.5" x2="25.6" y2="10"/>
	<circle class="st1" cx="11.1" cy="13.7" r="0.8"/>
	<g>
		<path class="st1" d="M11.7,17.6v-2.8h0.6c0.1,0,0.2,0,0.3,0s0.2,0.1,0.2,0.2c0.1,0.1,0.1,0.2,0.1,0.3s0,0.2,0,0.4
			c0,0.1,0,0.2,0,0.3s0,0.2-0.1,0.2c-0.1,0.1-0.1,0.2-0.2,0.2c-0.1,0.1-0.2,0.1-0.4,0.1H12v1.1C12,17.6,11.7,17.6,11.7,17.6z
			 M12.2,15.2v1h0.2c0.1,0,0.1,0,0.2,0l0.1-0.1V16c0-0.1,0-0.1,0-0.2s0-0.1,0-0.2s0-0.1,0-0.2l-0.1-0.1c0,0-0.1,0-0.2,0L12.2,15.2
			L12.2,15.2z"/>
	</g>
</g>
<g>
	<path d="M34,20.1V3h3.7c0.7,0,1.3,0.1,1.8,0.3c0.5,0.2,1,0.5,1.4,0.9c0.4,0.4,0.7,1,0.9,1.6C41.9,6.4,42,7.2,42,8.2
		c0,0.8,0,1.4-0.1,1.9s-0.3,1-0.6,1.5c-0.3,0.6-0.8,1-1.3,1.3c-0.6,0.3-1.3,0.5-2.2,0.5h-1.2v6.7H34z M36.5,5.3v5.8h1.2
		c0.5,0,0.9-0.1,1.2-0.2c0.3-0.1,0.5-0.3,0.6-0.6c0.1-0.2,0.2-0.5,0.2-0.9c0-0.4,0-0.7,0-1.2c0-0.4,0-0.8,0-1.1
		c0-0.4-0.1-0.7-0.2-0.9s-0.3-0.5-0.6-0.6c-0.3-0.1-0.6-0.2-1.1-0.2H36.5z"/>
	<path d="M43.5,3h2.4v13.7c0,0.5,0.1,0.8,0.3,0.9s0.5,0.3,0.9,0.3v2.3c-0.6,0-1.1,0-1.5-0.1c-0.4-0.1-0.8-0.3-1.2-0.5
		c-0.3-0.2-0.6-0.6-0.7-1c-0.2-0.4-0.3-1-0.3-1.7V3z"/>
	<path d="M52.7,20.1v-1.2h0c-0.3,0.4-0.6,0.8-1,1c-0.3,0.2-0.8,0.4-1.4,0.4c-0.3,0-0.6,0-0.9-0.1s-0.6-0.3-0.9-0.5
		c-0.3-0.2-0.5-0.5-0.7-1s-0.3-1-0.3-1.6c0-0.7,0.1-1.3,0.2-1.8c0.1-0.5,0.3-1,0.6-1.3c0.3-0.3,0.7-0.6,1.2-0.8s1.1-0.3,1.9-0.3
		c0.1,0,0.2,0,0.3,0s0.2,0,0.3,0c0.1,0,0.2,0,0.3,0s0.2,0,0.4,0v-1.3c0-0.4-0.1-0.8-0.3-1c-0.2-0.3-0.5-0.4-1-0.4
		c-0.3,0-0.6,0.1-0.9,0.3s-0.4,0.5-0.5,0.9h-2.4c0.1-1.1,0.4-2,1.1-2.6c0.3-0.3,0.7-0.6,1.2-0.8c0.4-0.2,1-0.3,1.5-0.3
		c0.5,0,1,0.1,1.4,0.2c0.4,0.2,0.8,0.4,1.2,0.7c0.3,0.3,0.6,0.7,0.8,1.2c0.2,0.5,0.3,1,0.3,1.7v8.5H52.7z M52.7,14.9
		c-0.3,0-0.5-0.1-0.7-0.1c-0.5,0-1,0.1-1.4,0.4c-0.4,0.2-0.6,0.7-0.6,1.4c0,0.5,0.1,0.8,0.3,1.1s0.5,0.4,0.9,0.4
		c0.4,0,0.7-0.1,1-0.4c0.2-0.3,0.3-0.7,0.3-1.2V14.9z"/>
	<path d="M55.7,7.9h2.6l1.7,7.6h0l1.7-7.6h2.5l-3.5,14.3c-0.1,0.5-0.3,1-0.5,1.3c-0.2,0.4-0.5,0.6-0.8,0.9c-0.3,0.2-0.6,0.4-1,0.5
		C58,25,57.6,25,57.3,25h-0.7v-2.3h0.6c0.2,0,0.4,0,0.6-0.1c0.2-0.1,0.3-0.2,0.5-0.4c0.1-0.2,0.2-0.5,0.4-0.9c0.1-0.4,0.2-1,0.4-1.7
		L55.7,7.9z"/>
	<path d="M65.4,20.1V9.8h-1.2V7.9h1.2V6.3c0-0.6,0.1-1.1,0.3-1.5c0.2-0.4,0.4-0.7,0.7-1c0.3-0.3,0.6-0.5,1-0.6S68.2,3,68.6,3h1.1
		v2.3h-1.1c-0.5,0-0.7,0.3-0.7,0.8v1.8h1.8v1.9h-1.8v10.2H65.4z"/>
	<path d="M77.8,7.9v12.2h-2.4v-1.2h0c-0.3,0.4-0.6,0.7-0.9,0.9c-0.4,0.2-0.8,0.4-1.4,0.4c-0.3,0-0.6-0.1-0.9-0.2
		c-0.3-0.1-0.6-0.3-0.8-0.5s-0.4-0.5-0.6-0.9c-0.1-0.4-0.2-0.8-0.2-1.4V7.9h2.4v8.4c0,0.4,0.1,0.8,0.3,1.1c0.2,0.3,0.5,0.4,0.9,0.4
		c0.5,0,0.8-0.1,1-0.4c0.2-0.3,0.3-0.7,0.3-1.2V7.9H77.8z"/>
	<path d="M79.7,3h2.4v13.7c0,0.5,0.1,0.8,0.3,0.9s0.5,0.3,0.9,0.3v2.3c-0.6,0-1.1,0-1.5-0.1c-0.4-0.1-0.8-0.3-1.2-0.5
		c-0.3-0.2-0.6-0.6-0.7-1c-0.2-0.4-0.3-1-0.3-1.7V3z"/>
</g>
</svg>
